<svg version="1.0" xmlns="http://www.w3.org/2000/svg" width="405.333" height="405.333" viewBox="0 0 304 304">
  <path fill="#D35A95" d="M129.5 3.5c-33.3 5.3-61.1 19.6-85 43.9-57.6 58.4-57.5 152.5.2 210.9 42 42.4 102 56.2 158.3 36.5 49.1-17.3 85.8-59.6 97.2-112.1 1.9-8.6 2.2-13.3 2.2-30.2 0-22.1-1.3-30.7-7.5-48.8C277.1 51.8 231.8 13.3 177.5 4c-13.6-2.3-35.2-2.6-48-.5zm49.9 39.1c3.9 8.8 11.5 16.9 24.2 25.5 28.9 19.7 38.8 42.8 30.3 70.7-3.1 10-10.6 25.2-12.5 25.2-1.4 0-1.5-1.7-.9-15.3 1.4-29.9-3.9-46.5-20.2-63.7-5.5-5.8-18.9-15.9-19.7-14.8-.2.2-4.7 29.5-10 65.3-12.8 85.9-13.1 87.7-16 93.3-7.3 14.2-24.8 21.1-42.9 16.8-15.7-3.7-25.3-11.8-29.1-24.6-2.1-7.2-2-12.4.5-20.6 1.7-5.6 3.1-7.7 7.8-12.4 7.5-7.6 14.4-10.3 26.1-10.2 12.2 0 20.3 2.8 27.5 9.4 3.1 2.8 5.7 4.9 5.9 4.7.1-.2 5.3-34.8 11.5-76.9 6.2-42.1 11.4-77.1 11.6-77.8 1-2.9 3.2-.8 5.9 5.4z"/>
</svg>
